<svg version="1.1" id="Layer_1" xmlns="http://www.w3.org/2000/svg" xmlns:xlink="http://www.w3.org/1999/xlink" x="0px" y="0px"
	 width="100%" viewBox="0 0 2208 684" enable-background="new 0 0 2208 684" xml:space="preserve">
<path fill="#000000" opacity="1.000000" stroke="none" 
	d="
M1676.000000,685.000000 
	C1117.333374,685.000000 559.166687,685.000000 1.000000,685.000000 
	C1.000000,457.000000 1.000000,229.000000 1.000000,1.000000 
	C737.000000,1.000000 1473.000000,1.000000 2209.000000,1.000000 
	C2209.000000,229.000000 2209.000000,457.000000 2209.000000,685.000000 
	C2031.500000,685.000000 1854.000000,685.000000 1676.000000,685.000000 
M667.948364,455.359650 
	C667.282471,455.204193 666.616577,455.048706 665.024597,454.978943 
	C653.650452,455.647675 642.274536,456.288727 630.902527,456.991913 
	C615.088318,457.969788 599.279114,459.029755 583.463745,459.987213 
	C571.426025,460.715973 559.374878,461.235229 547.343933,462.056213 
	C541.616943,462.446960 535.935242,463.473541 530.210815,463.938354 
	C524.336731,464.415375 518.435425,464.558289 512.307495,464.859131 
	C512.307495,421.508942 512.307495,378.461884 512.307495,335.219696 
	C551.610474,334.708801 590.610718,334.201843 629.607178,333.694916 
	C629.607178,304.656891 629.607178,275.948883 629.607178,247.500000 
	C590.218201,247.500000 551.222046,247.500000 512.299377,247.500000 
	C512.299377,208.606644 512.299377,170.018021 512.299377,130.844788 
	C564.302795,130.844788 616.009949,130.844788 667.729736,130.844788 
	C667.729736,101.000992 667.729736,71.744553 667.729736,42.335606 
	C586.092224,42.335606 504.725311,42.335606 423.358704,42.335606 
	C423.358704,215.041046 423.358704,387.410645 423.358704,559.980225 
	C425.208801,559.980225 426.713867,560.106201 428.192139,559.960510 
	C441.276367,558.670532 454.348175,557.250549 467.438934,556.032776 
	C479.406830,554.919373 491.390259,553.966125 503.372986,553.020081 
	C520.786316,551.645447 538.203308,550.317139 555.622131,549.013306 
	C569.432129,547.979492 583.239075,546.880737 597.061707,546.047363 
	C615.866211,544.913635 634.686462,544.043701 653.494995,542.973022 
	C658.218445,542.704163 662.922852,542.101440 667.833374,541.633301 
	C667.833374,512.917969 667.833374,484.459137 667.948364,455.359650 
M1976.004272,184.297485 
	C1975.614014,183.531601 1975.223633,182.765717 1974.947144,181.295624 
	C1974.333496,179.847214 1973.719971,178.398788 1973.004150,176.297562 
	C1972.613892,175.531708 1972.223633,174.765839 1971.953735,173.397079 
	C1971.671387,172.914825 1971.388916,172.432571 1971.004395,171.297485 
	C1970.614014,170.531616 1970.223755,169.765747 1969.953735,168.397125 
	C1969.671265,167.914871 1969.388794,167.432632 1969.004272,166.297470 
	C1968.614014,165.531586 1968.223633,164.765701 1967.947144,163.295609 
	C1967.333618,161.847183 1966.719971,160.398773 1966.004395,158.297485 
	C1965.614014,157.531616 1965.223755,156.765762 1964.953735,155.397095 
	C1964.671387,154.914841 1964.388916,154.432602 1964.004272,153.297516 
	C1963.614014,152.531647 1963.223633,151.765778 1962.953735,150.397141 
	C1962.671265,149.914886 1962.388794,149.432648 1962.004272,148.297470 
	C1961.614014,147.531586 1961.223755,146.765701 1960.947266,145.295578 
	C1960.333618,143.847168 1959.720093,142.398758 1959.004272,140.297516 
	C1958.614014,139.531647 1958.223633,138.765793 1957.953735,137.397110 
	C1957.671265,136.914856 1957.388916,136.432617 1957.004272,135.297516 
	C1956.613892,134.531631 1956.223633,133.765747 1955.947144,132.295609 
	C1955.333618,130.847183 1954.719971,129.398773 1954.004272,127.297462 
	C1953.614014,126.531609 1953.223633,125.765755 1952.953857,124.397018 
	C1952.671387,123.914780 1952.388916,123.432541 1952.004150,122.297501 
	C1951.613892,121.531647 1951.223633,120.765793 1950.953857,119.397034 
	C1950.671387,118.914795 1950.388916,118.432556 1950.004272,117.297462 
	C1949.614014,116.531586 1949.223755,115.765709 1948.946899,114.295609 
	C1948.333374,112.847206 1947.719849,111.398804 1947.004272,109.297478 
	C1946.614014,108.531616 1946.223633,107.765762 1945.953735,106.397064 
	C1945.671265,105.914825 1945.388916,105.432587 1945.004150,104.297508 
	C1944.613892,103.531654 1944.223633,102.765800 1943.953735,101.397079 
	C1943.671265,100.914841 1943.388916,100.432602 1943.004272,99.297440 
	C1942.614014,98.531570 1942.223755,97.765694 1941.947021,96.295570 
	C1941.333496,94.847168 1940.719971,93.398766 1940.004272,91.297485 
	C1939.613892,90.531631 1939.223633,89.765770 1938.953735,88.397049 
	C1938.671387,87.914810 1938.388916,87.432571 1938.004272,86.297462 
	C1937.614014,85.531593 1937.223633,84.765717 1936.946899,83.295601 
	C1936.333374,81.847198 1935.719849,80.398788 1935.004272,78.297455 
	C1934.614014,77.531601 1934.223755,76.765747 1933.953857,75.397018 
	C1933.671387,74.914780 1933.388916,74.432541 1933.004272,73.297493 
	C1932.613892,72.531639 1932.223633,71.765778 1931.953857,70.397034 
	C1931.671387,69.914795 1931.388916,69.432556 1931.004150,68.297501 
	C1930.613892,67.531631 1930.223633,66.765755 1929.947021,65.295563 
	C1929.333496,63.847160 1928.719971,62.398754 1928.004272,60.297466 
	C1927.614014,59.531605 1927.223633,58.765743 1926.953735,57.397060 
	C1926.671265,56.914822 1926.388916,56.432583 1926.004272,55.297497 
	C1925.613892,54.531635 1925.223633,53.765774 1924.953735,52.397072 
	C1924.671265,51.914833 1924.388916,51.432594 1924.004272,50.297474 
	C1923.614014,49.531612 1923.223633,48.765751 1922.953857,47.397022 
	C1922.671387,46.914783 1922.388916,46.432545 1922.014771,45.127182 
	C1921.906372,41.081043 1918.845093,42.029819 1916.541382,42.026623 
	C1887.544556,41.986351 1858.547852,41.996349 1829.551025,42.011780 
	C1828.130615,42.012535 1826.710083,42.181816 1824.861938,42.299961 
	C1830.543457,57.194046 1835.991455,71.683968 1841.592896,86.114273 
	C1851.341309,111.227600 1861.213623,136.292755 1870.979004,161.399490 
	C1880.506714,185.895279 1889.948608,210.424362 1899.459595,234.926651 
	C1908.262451,257.604553 1917.156128,280.247528 1925.833374,302.973175 
	C1926.478027,304.661499 1926.231567,307.115234 1925.504883,308.835327 
	C1919.207642,323.742950 1912.672852,338.549927 1906.272095,353.414154 
	C1897.158081,374.579407 1888.124756,395.779358 1879.005371,416.942291 
	C1872.406372,432.256439 1865.679199,447.515411 1859.089966,462.833740 
	C1850.179077,483.549500 1841.318115,504.286835 1832.488770,525.037476 
	C1827.067139,537.779419 1821.744995,550.563599 1816.095459,563.809753 
	C1816.394409,564.150940 1816.693359,564.492126 1817.883911,564.966980 
	C1826.575562,565.672180 1835.280518,566.245728 1843.955688,567.114868 
	C1855.699097,568.291382 1867.417358,569.715149 1879.150757,570.993164 
	C1886.657104,571.810730 1894.226929,572.216858 1901.665527,573.435425 
	C1908.357056,574.531738 1909.396362,574.229370 1911.865967,568.419434 
	C1920.802856,547.394897 1929.882568,526.431030 1938.858643,505.423004 
	C1945.653564,489.520081 1952.243530,473.528320 1959.173096,457.684753 
	C1963.530029,447.723541 1968.345825,437.963013 1973.225952,428.653717 
	C1973.803345,428.807556 1974.380859,428.961395 1975.025391,429.861053 
	C1981.244507,445.998047 1987.431641,462.147491 1993.690063,478.269257 
	C2003.437134,503.377869 2013.201172,528.479980 2023.021362,553.560059 
	C2027.660400,565.407654 2032.446899,577.197571 2037.130859,589.508362 
	C2037.130859,589.508362 2037.479248,589.861328 2037.479248,589.861328 
	C2037.479248,589.861328 2037.974365,589.833374 2038.846802,589.967041 
	C2043.085815,590.406982 2047.337891,590.748901 2051.561523,591.305725 
	C2063.061768,592.821960 2074.550537,594.426636 2086.043457,596.000732 
	C2097.051270,597.508362 2108.058838,599.021301 2119.066406,600.532654 
	C2125.279053,601.385742 2131.491943,602.240540 2138.827881,603.248962 
	C2137.476562,600.428406 2136.655029,598.713867 2135.953857,596.396790 
	C2135.671387,595.914673 2135.388916,595.432556 2135.004150,594.297485 
	C2134.613770,593.531433 2134.223633,592.765442 2133.953857,591.396729 
	C2133.671387,590.914612 2133.388916,590.432495 2133.004395,589.297363 
	C2132.614014,588.531250 2132.223633,587.765198 2131.947021,586.295044 
	C2131.333496,584.846802 2130.719971,583.398560 2130.004150,581.297424 
	C2129.614014,580.531433 2129.223633,579.765442 2128.953857,578.396729 
	C2128.671387,577.914612 2128.388916,577.432495 2128.004150,576.297424 
	C2127.614014,575.531372 2127.223633,574.765381 2126.953857,573.396790 
	C2126.671387,572.914673 2126.388916,572.432556 2126.004395,571.297363 
	C2125.614014,570.531250 2125.223633,569.765198 2124.947021,568.295044 
	C2124.333496,566.846802 2123.719971,565.398621 2123.004150,563.297424 
	C2122.614014,562.531433 2122.223633,561.765442 2121.953857,560.396790 
	C2121.671387,559.914673 2121.388916,559.432556 2121.004395,558.297302 
	C2120.614014,557.531250 2120.223633,556.765198 2119.947021,555.295044 
	C2119.333496,553.846802 2118.719971,552.398560 2118.004150,550.297424 
	C2117.614014,549.531433 2117.223633,548.765381 2116.953857,547.396729 
	C2116.671387,546.914612 2116.388916,546.432495 2116.004150,545.297424 
	C2115.614014,544.531433 2115.223633,543.765442 2114.953857,542.396790 
	C2114.671387,541.914673 2114.388916,541.432495 2114.004395,540.297363 
	C2113.614014,539.531250 2113.223633,538.765198 2112.947021,537.295044 
	C2112.333496,535.846802 2111.719971,534.398621 2111.004150,532.297424 
	C2110.614014,531.531433 2110.223633,530.765381 2109.953857,529.396790 
	C2109.671387,528.914673 2109.388916,528.432495 2109.004150,527.297363 
	C2108.614014,526.531372 2108.223877,525.765381 2107.953857,524.396790 
	C2107.671387,523.914673 2107.388916,523.432495 2107.004395,522.297302 
	C2106.614014,521.531189 2106.223877,520.765137 2105.947021,519.295044 
	C2105.333496,517.846802 2104.719971,516.398560 2104.004395,514.297485 
	C2103.614014,513.531555 2103.223877,512.765625 2102.953857,511.396973 
	C2102.671387,510.914764 2102.388916,510.432556 2102.004150,509.297394 
	C2101.614014,508.531342 2101.223877,507.765259 2100.947021,506.295105 
	C2100.333496,504.846863 2099.719971,503.398621 2099.004395,501.297272 
	C2098.614258,500.531281 2098.223877,499.765259 2097.953857,498.396667 
	C2097.671387,497.914551 2097.388916,497.432465 2097.004395,496.297333 
	C2096.614014,495.531342 2096.223877,494.765320 2095.953857,493.396698 
	C2095.671387,492.914612 2095.388916,492.432495 2095.004150,491.297424 
	C2094.614014,490.531372 2094.223633,489.765320 2093.947021,488.295105 
	C2093.333496,486.846863 2092.719971,485.398621 2092.004395,483.297302 
	C2091.614258,482.531281 2091.223877,481.765289 2090.953857,480.396637 
	C2090.671387,479.914551 2090.388916,479.432434 2090.004395,478.297363 
	C2089.614014,477.531342 2089.223633,476.765320 2088.953857,475.396667 
	C2088.671387,474.914581 2088.388916,474.432495 2088.004150,473.297424 
	C2087.614014,472.531372 2087.223633,471.765289 2086.947021,470.295044 
	C2086.333496,468.846802 2085.719971,467.398590 2085.004395,465.297302 
	C2084.614014,464.531311 2084.223877,463.765289 2083.953857,462.396667 
	C2083.671387,461.914581 2083.388916,461.432495 2083.004150,460.297455 
	C2082.613770,459.531403 2082.223633,458.765320 2081.947021,457.295105 
	C2081.333496,455.846893 2080.719971,454.398651 2080.004395,452.297333 
	C2079.614014,451.531311 2079.223877,450.765289 2078.953857,449.396698 
	C2078.671387,448.914581 2078.388916,448.432495 2078.004395,447.297333 
	C2077.614014,446.531311 2077.223877,445.765320 2076.953857,444.396667 
	C2076.671387,443.914551 2076.388916,443.432465 2076.004150,442.297455 
	C2075.613770,441.531372 2075.223633,440.765320 2074.947021,439.295074 
	C2074.333496,437.846832 2073.719971,436.398590 2073.004395,434.297333 
	C2072.614014,433.531342 2072.223877,432.765320 2071.953857,431.396667 
	C2071.671387,430.914581 2071.388916,430.432465 2071.004395,429.297333 
	C2070.614014,428.531342 2070.223877,427.765320 2069.953857,426.396698 
	C2069.671387,425.914612 2069.388916,425.432495 2069.004150,424.297363 
	C2068.614014,423.531311 2068.223877,422.765259 2067.947021,421.295074 
	C2067.333496,419.846832 2066.719971,418.398590 2066.004395,416.297363 
	C2065.614014,415.531342 2065.223633,414.765320 2064.953857,413.396637 
	C2064.671387,412.914551 2064.388916,412.432465 2064.004150,411.297424 
	C2063.614014,410.531342 2063.223633,409.765289 2062.947021,408.295044 
	C2062.333496,406.846802 2061.719971,405.398590 2061.004395,403.297363 
	C2060.614014,402.531342 2060.223633,401.765350 2059.953857,400.396698 
	C2059.671387,399.914612 2059.388916,399.432526 2059.004395,398.297302 
	C2058.614014,397.531311 2058.223877,396.765289 2057.953857,395.396698 
	C2057.671387,394.914581 2057.388916,394.432495 2057.004150,393.297455 
	C2056.613770,392.531403 2056.223633,391.765320 2055.947021,390.295074 
	C2055.333496,388.846863 2054.719971,387.398621 2054.004395,385.297333 
	C2053.614014,384.531311 2053.223877,383.765289 2052.953857,382.396637 
	C2052.671387,381.914520 2052.388916,381.432434 2052.004395,380.297333 
	C2051.614014,379.531311 2051.223877,378.765320 2050.953857,377.396667 
	C2050.671387,376.914581 2050.388916,376.432465 2050.004150,375.297424 
	C2049.614014,374.531372 2049.223633,373.765320 2048.947021,372.295074 
	C2048.333496,370.846863 2047.719971,369.398621 2047.004150,367.297577 
	C2046.613892,366.531769 2046.223633,365.765961 2045.953735,364.397186 
	C2045.671265,363.914917 2045.388916,363.432648 2045.004272,362.297516 
	C2044.614014,361.531677 2044.223633,360.765869 2043.947144,359.295746 
	C2043.333618,357.847290 2042.719971,356.398834 2042.004395,354.297485 
	C2041.614014,353.531677 2041.223755,352.765869 2040.953735,351.397217 
	C2040.671265,350.914948 2040.388794,350.432678 2040.004272,349.297516 
	C2039.614014,348.531708 2039.223633,347.765900 2038.953735,346.397217 
	C2038.671265,345.914948 2038.388794,345.432678 2038.004395,344.297455 
	C2037.614014,343.531647 2037.223755,342.765839 2036.947144,341.295746 
	C2036.333618,339.847290 2035.719971,338.398834 2035.004395,336.297485 
	C2034.614014,335.531677 2034.223755,334.765869 2033.953735,333.397186 
	C2033.671265,332.914917 2033.388916,332.432648 2033.004272,331.297516 
	C2032.613892,330.531708 2032.223633,329.765900 2031.953735,328.397186 
	C2031.671265,327.914917 2031.388916,327.432648 2031.004272,326.297546 
	C2030.613892,325.531738 2030.223633,324.765900 2029.947144,323.295746 
	C2029.333618,321.847290 2028.719971,320.398834 2028.004150,318.297546 
	C2027.613892,317.531738 2027.223633,316.765930 2026.953735,315.397217 
	C2026.671265,314.914948 2026.388794,314.432678 2026.004395,313.297485 
	C2025.614014,312.531677 2025.223755,311.765869 2024.953735,310.397217 
	C2024.671265,309.914948 2024.388794,309.432678 2024.049072,308.199860 
	C2031.917480,289.724487 2039.734863,271.227173 2047.665771,252.778671 
	C2061.279785,221.110550 2074.947510,189.465302 2088.625244,157.824615 
	C2102.823242,124.980705 2117.068848,92.157349 2131.271973,59.315723 
	C2133.648193,53.821556 2135.915039,48.280224 2138.397217,42.368240 
	C2136.800781,42.200752 2135.856201,42.015541 2134.911621,42.015053 
	C2104.764404,41.999378 2074.616943,42.063305 2044.470459,41.917030 
	C2041.000977,41.900196 2039.998291,43.745483 2038.901855,46.309551 
	C2033.763550,58.326515 2028.503662,70.291336 2023.333862,82.294876 
	C2010.862183,111.251953 1998.388672,140.208313 1985.983643,169.193985 
	C1983.488037,175.025192 1981.292114,180.984680 1978.305420,186.957153 
	C1977.572510,186.288208 1976.839478,185.619247 1976.004272,184.297485 
M160.999832,345.498627 
	C169.987457,371.065918 179.020966,396.617188 187.950974,422.204590 
	C198.871414,453.495178 209.723251,484.809753 220.569565,516.126160 
	C227.409515,535.874939 234.239777,555.627502 240.933319,575.426086 
	C241.993698,578.562561 243.094086,579.149353 246.571945,578.425842 
	C253.297607,577.026794 260.252380,576.713257 267.118134,576.007812 
	C277.423035,574.949097 287.739105,573.996765 298.039368,572.895630 
	C309.626862,571.656921 321.181671,570.043274 332.792969,569.131165 
	C337.269989,568.779480 339.106903,567.840332 339.103302,562.862305 
	C338.979187,391.052399 338.999939,219.242447 338.999939,47.432480 
	C338.999939,45.688187 338.999908,43.943893 338.999908,42.311783 
	C309.253052,42.311783 280.328308,42.311783 250.633957,42.311783 
	C250.633957,146.008743 250.633957,249.395935 250.633957,352.783142 
	C249.167480,352.075836 248.526535,351.305084 248.210281,350.418488 
	C241.629532,331.969788 235.149536,313.484955 228.521332,295.053406 
	C213.883575,254.349121 199.205276,213.659348 184.486664,172.984207 
	C169.045578,130.312622 153.475037,87.687622 138.185089,44.962090 
	C137.023514,41.716255 135.167969,42.011612 132.910706,42.010242 
	C107.580818,41.994831 82.250923,41.994976 56.921059,42.018509 
	C55.665234,42.019676 54.409641,42.274559 53.272026,42.398445 
	C53.272026,229.418396 53.272026,416.007233 53.272026,603.229553 
	C58.922119,602.455200 64.230911,601.721802 69.541389,601.000916 
	C80.260094,599.545898 90.981430,598.110168 101.698509,596.643311 
	C112.898376,595.110168 124.069359,593.320618 135.301788,592.088013 
	C141.953598,591.358154 141.999420,591.745117 141.999466,584.858948 
	C142.000244,490.871735 142.000000,396.884521 142.000015,302.897308 
	C142.000015,301.006134 142.000015,299.114990 142.000015,297.223816 
	C142.649109,297.094971 143.298218,296.966125 143.947311,296.837311 
	C149.598785,312.791260 155.250259,328.745209 160.999832,345.498627 
M1051.000000,366.500000 
	C1051.000000,420.908325 1051.000000,475.316681 1051.000000,529.724670 
	C1080.675781,529.724670 1109.598999,529.724670 1139.104370,529.724670 
	C1139.104370,463.080750 1139.104370,396.709320 1139.104370,329.752747 
	C1179.061401,329.752747 1218.437988,329.752747 1257.682129,329.752747 
	C1257.682129,300.572144 1257.682129,271.981689 1257.682129,242.805267 
	C1217.991577,242.805267 1178.614990,242.805267 1139.289917,242.805267 
	C1139.289917,205.293045 1139.289917,168.370804 1139.289917,130.863693 
	C1191.950439,130.863693 1244.324341,130.863693 1296.739136,130.863693 
	C1296.739136,101.019882 1296.739136,71.763435 1296.739136,42.326538 
	C1214.777466,42.326538 1133.077026,42.326538 1051.000000,42.326538 
	C1051.000000,150.268417 1051.000000,257.884216 1051.000000,366.500000 
M972.500000,131.000000 
	C979.921631,131.000000 987.343323,131.000000 994.715210,131.000000 
	C994.715210,100.971527 994.715210,71.714989 994.715210,42.348278 
	C904.064270,42.348278 813.698608,42.348278 723.425049,42.348278 
	C723.425049,72.072556 723.425049,101.446609 723.425049,131.231293 
	C754.106506,131.231293 784.364563,131.231293 815.183472,131.231293 
	C815.183472,266.008270 815.183472,400.370758 815.183472,535.385376 
	C821.202332,534.890137 826.602539,534.180664 832.016846,534.048462 
	C850.782288,533.590393 869.554565,533.410950 888.319763,532.944763 
	C893.052429,532.827209 897.768372,532.036865 903.051758,531.498718 
	C903.051758,398.134277 903.051758,264.771790 903.051758,131.000000 
	C926.244385,131.000000 948.872192,131.000000 972.500000,131.000000 
M1352.000000,61.500534 
	C1352.000000,218.896225 1352.000000,376.291931 1352.000000,533.474243 
	C1356.955566,534.033447 1361.187988,534.769104 1365.443604,534.946655 
	C1383.979736,535.719666 1402.525635,536.259827 1421.062134,537.024048 
	C1434.108765,537.561890 1447.146240,538.324951 1460.187744,538.986450 
	C1479.999878,539.991394 1499.810303,541.030640 1519.624878,541.983887 
	C1528.557251,542.413635 1537.506958,542.519653 1546.431763,543.055908 
	C1553.322388,543.469910 1560.174072,544.616150 1567.065552,544.907898 
	C1574.911377,545.240051 1582.782227,544.984680 1590.777100,544.984680 
	C1590.800537,544.856384 1590.963867,544.379517 1590.964233,543.902466 
	C1590.984131,516.741455 1590.943359,489.580292 1591.057251,462.419708 
	C1591.071533,459.008423 1589.382568,458.171295 1586.559814,458.000641 
	C1570.246338,457.014526 1553.934937,455.991394 1537.621460,455.006073 
	C1526.247681,454.319092 1514.876465,453.563873 1503.495117,453.033875 
	C1486.959106,452.263855 1470.412476,451.720764 1453.875610,450.964447 
	C1449.662354,450.771729 1445.469238,450.140228 1440.754150,449.657898 
	C1440.754150,313.598602 1440.754150,177.905731 1440.754150,42.306446 
	C1410.927490,42.306446 1381.670898,42.306446 1352.000000,42.306446 
	C1352.000000,48.570641 1352.000000,54.535744 1352.000000,61.500534 
M1663.035034,43.797256 
	C1663.023438,211.401474 1663.011963,379.005707 1663.000488,546.609924 
	C1663.000488,547.109741 1663.036133,547.612183 1662.997681,548.108948 
	C1662.787476,550.832703 1663.972534,551.851624 1666.759033,552.055115 
	C1683.347290,553.267212 1699.919434,554.699219 1716.503052,555.978943 
	C1727.892700,556.857849 1739.292358,557.609436 1750.643433,558.414795 
	C1750.643433,386.333954 1750.643433,214.325180 1750.643433,42.321468 
	C1749.815063,42.183952 1749.334595,42.034668 1748.854004,42.034351 
	C1721.364380,42.016117 1693.874634,42.000652 1666.385010,42.039215 
	C1665.316040,42.040714 1664.247803,42.571835 1663.035034,43.797256 
z"/>
<path fill="#E50914" opacity="1.000000" stroke="none" 
	d="
M160.950775,345.098877 
	C155.250259,328.745209 149.598785,312.791260 143.947311,296.837311 
	C143.298218,296.966125 142.649109,297.094971 142.000015,297.223816 
	C142.000015,299.114990 142.000015,301.006134 142.000015,302.897308 
	C142.000000,396.884521 142.000244,490.871735 141.999466,584.858948 
	C141.999420,591.745117 141.953598,591.358154 135.301788,592.088013 
	C124.069359,593.320618 112.898376,595.110168 101.698509,596.643311 
	C90.981430,598.110168 80.260094,599.545898 69.541389,601.000916 
	C64.230911,601.721802 58.922119,602.455200 53.272026,603.229553 
	C53.272026,416.007233 53.272026,229.418396 53.272026,42.398445 
	C54.409641,42.274559 55.665234,42.019676 56.921059,42.018509 
	C82.250923,41.994976 107.580818,41.994831 132.910706,42.010242 
	C135.167969,42.011612 137.023514,41.716255 138.185089,44.962090 
	C153.475037,87.687622 169.045578,130.312622 184.486664,172.984207 
	C199.205276,213.659348 213.883575,254.349121 228.521332,295.053406 
	C235.149536,313.484955 241.629532,331.969788 248.210281,350.418488 
	C248.526535,351.305084 249.167480,352.075836 250.633957,352.783142 
	C250.633957,249.395935 250.633957,146.008743 250.633957,42.311783 
	C280.328308,42.311783 309.253052,42.311783 338.999908,42.311783 
	C338.999908,43.943893 338.999939,45.688187 338.999939,47.432480 
	C338.999939,219.242447 338.979187,391.052399 339.103302,562.862305 
	C339.106903,567.840332 337.269989,568.779480 332.792969,569.131165 
	C321.181671,570.043274 309.626862,571.656921 298.039368,572.895630 
	C287.739105,573.996765 277.423035,574.949097 267.118134,576.007812 
	C260.252380,576.713257 253.297607,577.026794 246.571945,578.425842 
	C243.094086,579.149353 241.993698,578.562561 240.933319,575.426086 
	C234.239777,555.627502 227.409515,535.874939 220.569565,516.126160 
	C209.723251,484.809753 198.871414,453.495178 187.950974,422.204590 
	C179.020966,396.617188 169.987457,371.065918 160.950775,345.098877 
z"/>
<path fill="#E50914" opacity="1.000000" stroke="none" 
	d="
M2071.833496,431.999329 
	C2072.223877,432.765320 2072.614014,433.531342 2072.939941,434.893433 
	C2073.528076,436.992767 2074.180908,438.496002 2074.833496,439.999237 
	C2075.223633,440.765320 2075.613770,441.531372 2075.971680,442.817230 
	C2076.237061,443.891113 2076.535156,444.445221 2076.833496,444.999329 
	C2077.223877,445.765320 2077.614014,446.531311 2077.971680,447.817139 
	C2078.237061,448.891052 2078.535400,449.445160 2078.833496,449.999268 
	C2079.223877,450.765289 2079.614014,451.531311 2079.939941,452.893463 
	C2080.528076,454.992798 2081.180664,456.496002 2081.833496,457.999268 
	C2082.223633,458.765320 2082.613770,459.531403 2082.971680,460.817200 
	C2083.237061,461.891083 2083.535400,462.445190 2083.833496,462.999268 
	C2084.223877,463.765289 2084.614014,464.531311 2084.939941,465.893463 
	C2085.527832,467.992828 2086.180664,469.496063 2086.833496,470.999268 
	C2087.223633,471.765289 2087.614014,472.531372 2087.971680,473.817200 
	C2088.237061,474.891083 2088.535400,475.445190 2088.833496,475.999329 
	C2089.223633,476.765320 2089.614014,477.531342 2089.971680,478.817169 
	C2090.237061,479.891083 2090.535400,480.445190 2090.833496,480.999268 
	C2091.223877,481.765289 2091.614258,482.531281 2091.939941,483.893433 
	C2092.528076,485.992828 2093.180664,487.496033 2093.833496,488.999237 
	C2094.223633,489.765320 2094.614014,490.531372 2094.971680,491.817200 
	C2095.237061,492.891113 2095.535156,493.445221 2095.833496,493.999329 
	C2096.223877,494.765320 2096.614014,495.531342 2096.971680,496.817169 
	C2097.237061,497.891113 2097.535156,498.445221 2097.833496,498.999268 
	C2098.223877,499.765259 2098.614258,500.531281 2098.939941,501.893433 
	C2099.528076,503.992798 2100.180664,505.496002 2100.833496,506.999207 
	C2101.223877,507.765259 2101.614014,508.531342 2101.971680,509.817200 
	C2102.237061,510.891266 2102.535400,511.445496 2102.833496,511.999695 
	C2103.223877,512.765625 2103.614014,513.531555 2103.939941,514.893555 
	C2104.528076,516.992798 2105.180664,518.495972 2105.833496,519.999084 
	C2106.223877,520.765137 2106.614014,521.531189 2106.971680,522.817139 
	C2107.237061,523.891113 2107.535400,524.445251 2107.833496,524.999390 
	C2108.223877,525.765381 2108.614014,526.531372 2108.971680,527.817139 
	C2109.237061,528.891113 2109.535400,529.445251 2109.833496,529.999390 
	C2110.223633,530.765381 2110.614014,531.531433 2110.939697,532.893555 
	C2111.528076,534.992737 2112.180908,536.495911 2112.833496,537.999146 
	C2113.223633,538.765198 2113.614014,539.531250 2113.971680,540.817139 
	C2114.237061,541.891113 2114.535400,542.445251 2114.833496,542.999390 
	C2115.223633,543.765442 2115.614014,544.531433 2115.971680,545.817200 
	C2116.237061,546.891113 2116.535400,547.445251 2116.833496,547.999390 
	C2117.223633,548.765381 2117.614014,549.531433 2117.939697,550.893555 
	C2118.527832,552.992798 2119.180664,554.495972 2119.833496,555.999146 
	C2120.223633,556.765198 2120.614014,557.531250 2120.971680,558.817139 
	C2121.237061,559.891113 2121.535400,560.445251 2121.833496,560.999390 
	C2122.223633,561.765442 2122.614014,562.531433 2122.939697,563.893555 
	C2123.528076,565.992798 2124.180664,567.495911 2124.833496,568.999146 
	C2125.223633,569.765198 2125.614014,570.531250 2125.971680,571.817139 
	C2126.237061,572.891113 2126.535400,573.445251 2126.833496,573.999390 
	C2127.223633,574.765381 2127.614014,575.531372 2127.971680,576.817261 
	C2128.237061,577.891174 2128.535156,578.445312 2128.833496,578.999390 
	C2129.223633,579.765442 2129.614014,580.531433 2129.939697,581.893555 
	C2130.528076,583.992798 2131.180664,585.495911 2131.833496,586.999146 
	C2132.223633,587.765198 2132.614014,588.531250 2132.971680,589.817200 
	C2133.237061,590.891174 2133.535156,591.445312 2133.833496,591.999451 
	C2134.223633,592.765442 2134.613770,593.531433 2134.971680,594.817261 
	C2135.237061,595.891113 2135.535400,596.445251 2135.833496,596.999390 
	C2136.655029,598.713867 2137.476562,600.428406 2138.827881,603.248962 
	C2131.491943,602.240540 2125.279053,601.385742 2119.066406,600.532654 
	C2108.058838,599.021301 2097.051270,597.508362 2086.043457,596.000732 
	C2074.550537,594.426636 2063.061768,592.821960 2051.561523,591.305725 
	C2047.337891,590.748901 2043.085815,590.406982 2038.283447,589.756348 
	C2037.545410,589.358276 2037.360840,589.180908 2037.166626,589.013611 
	C2032.446899,577.197571 2027.660400,565.407654 2023.021362,553.560059 
	C2013.201172,528.479980 2003.437134,503.377869 1993.690063,478.269257 
	C1987.431641,462.147491 1981.244507,445.998047 1974.901001,429.282776 
	C1974.169678,428.507141 1973.562744,428.309814 1972.955811,428.112488 
	C1968.345825,437.963013 1963.530029,447.723541 1959.173096,457.684753 
	C1952.243530,473.528320 1945.653564,489.520081 1938.858643,505.423004 
	C1929.882568,526.431030 1920.802856,547.394897 1911.865967,568.419434 
	C1909.396362,574.229370 1908.357056,574.531738 1901.665527,573.435425 
	C1894.226929,572.216858 1886.657104,571.810730 1879.150757,570.993164 
	C1867.417358,569.715149 1855.699097,568.291382 1843.955688,567.114868 
	C1835.280518,566.245728 1826.575562,565.672180 1817.288696,564.522339 
	C1816.588501,563.828064 1816.483398,563.578430 1816.378174,563.328796 
	C1821.744995,550.563599 1827.067139,537.779419 1832.488770,525.037476 
	C1841.318115,504.286835 1850.179077,483.549500 1859.089966,462.833740 
	C1865.679199,447.515411 1872.406372,432.256439 1879.005371,416.942291 
	C1888.124756,395.779358 1897.158081,374.579407 1906.272095,353.414154 
	C1912.672852,338.549927 1919.207642,323.742950 1925.504883,308.835327 
	C1926.231567,307.115234 1926.478027,304.661499 1925.833374,302.973175 
	C1917.156128,280.247528 1908.262451,257.604553 1899.459595,234.926651 
	C1889.948608,210.424362 1880.506714,185.895279 1870.979004,161.399490 
	C1861.213623,136.292755 1851.341309,111.227600 1841.592896,86.114273 
	C1835.991455,71.683968 1830.543457,57.194046 1824.861938,42.299961 
	C1826.710083,42.181816 1828.130615,42.012535 1829.551025,42.011780 
	C1858.547852,41.996349 1887.544556,41.986351 1916.541382,42.026623 
	C1918.845093,42.029819 1921.906372,41.081043 1921.976929,45.732033 
	C1922.237183,46.891205 1922.535278,47.445526 1922.833496,47.999870 
	C1923.223633,48.765751 1923.614014,49.531612 1923.971680,50.817200 
	C1924.237061,51.891243 1924.535278,52.445564 1924.833374,52.999901 
	C1925.223633,53.765774 1925.613892,54.531635 1925.971680,55.817226 
	C1926.237061,56.891277 1926.535156,57.445599 1926.833374,57.999901 
	C1927.223633,58.765743 1927.614014,59.531605 1927.939697,60.893570 
	C1928.527954,62.993069 1929.180664,64.496468 1929.833252,65.999878 
	C1930.223633,66.765755 1930.613892,67.531631 1930.971558,68.817230 
	C1931.237061,69.891281 1931.535156,70.445602 1931.833374,70.999924 
	C1932.223633,71.765778 1932.613892,72.531639 1932.971680,73.817215 
	C1933.237061,74.891266 1933.535156,75.445587 1933.833374,75.999901 
	C1934.223755,76.765747 1934.614014,77.531601 1934.939697,78.893517 
	C1935.527954,80.992996 1936.180664,82.496414 1936.833374,83.999832 
	C1937.223633,84.765717 1937.614014,85.531593 1937.971680,86.817200 
	C1938.237061,87.891273 1938.535156,88.445595 1938.833374,88.999916 
	C1939.223633,89.765770 1939.613892,90.531631 1939.939697,91.893539 
	C1940.527832,93.993019 1941.180542,95.496437 1941.833374,96.999832 
	C1942.223755,97.765694 1942.614014,98.531570 1942.971680,99.817200 
	C1943.237061,100.891273 1943.535156,101.445602 1943.833252,101.999931 
	C1944.223633,102.765800 1944.613892,103.531654 1944.971558,104.817223 
	C1945.237061,105.891258 1945.535278,106.445580 1945.833374,106.999908 
	C1946.223633,107.765762 1946.614014,108.531616 1946.939697,109.893555 
	C1947.527832,111.993042 1948.180542,113.496460 1948.833252,114.999863 
	C1949.223755,115.765709 1949.614014,116.531586 1949.971680,117.817200 
	C1950.237061,118.891266 1950.535156,119.445587 1950.833252,119.999924 
	C1951.223633,120.765793 1951.613892,121.531647 1951.971558,122.817215 
	C1952.237061,123.891251 1952.535278,124.445572 1952.833374,124.999893 
	C1953.223633,125.765755 1953.614014,126.531609 1953.939697,127.893509 
	C1954.527832,129.992966 1955.180664,131.496384 1955.833496,132.999832 
	C1956.223633,133.765747 1956.613892,134.531631 1956.971680,135.817230 
	C1957.237183,136.891266 1957.535278,137.445587 1957.833374,137.999908 
	C1958.223633,138.765793 1958.614014,139.531647 1958.939697,140.893585 
	C1959.527954,142.993027 1960.180664,144.496429 1960.833374,145.999817 
	C1961.223755,146.765701 1961.614014,147.531586 1961.971680,148.817230 
	C1962.237061,149.891312 1962.535156,150.445633 1962.833374,150.999939 
	C1963.223633,151.765778 1963.614014,152.531647 1963.971680,153.817215 
	C1964.237183,154.891235 1964.535278,155.445557 1964.833496,155.999878 
	C1965.223755,156.765762 1965.614014,157.531616 1965.939819,158.893555 
	C1966.527954,160.993042 1967.180664,162.496445 1967.833374,163.999817 
	C1968.223633,164.765701 1968.614014,165.531586 1968.971680,166.817215 
	C1969.237061,167.891281 1969.535278,168.445602 1969.833496,168.999908 
	C1970.223755,169.765747 1970.614014,170.531616 1970.971680,171.817230 
	C1971.237061,172.891312 1971.535156,173.445633 1971.833252,173.999969 
	C1972.223633,174.765839 1972.613892,175.531708 1972.939697,176.893616 
	C1973.527954,178.993042 1974.180664,180.496445 1974.833374,181.999847 
	C1975.223633,182.765717 1975.614014,183.531601 1975.946899,184.879608 
	C1976.154541,186.324295 1976.419556,187.186874 1976.684692,188.049438 
	C1977.442505,187.661301 1978.200195,187.273148 1978.958008,186.885010 
	C1981.292114,180.984680 1983.488037,175.025192 1985.983643,169.193985 
	C1998.388672,140.208313 2010.862183,111.251953 2023.333862,82.294876 
	C2028.503662,70.291336 2033.763550,58.326515 2038.901855,46.309551 
	C2039.998291,43.745483 2041.000977,41.900196 2044.470459,41.917030 
	C2074.616943,42.063305 2104.764404,41.999378 2134.911621,42.015053 
	C2135.856201,42.015541 2136.800781,42.200752 2138.397217,42.368240 
	C2135.915039,48.280224 2133.648193,53.821556 2131.271973,59.315723 
	C2117.068848,92.157349 2102.823242,124.980705 2088.625244,157.824615 
	C2074.947510,189.465302 2061.279785,221.110550 2047.665771,252.778671 
	C2039.734863,271.227173 2031.917480,289.724487 2023.993896,308.768372 
	C2024.237061,309.891327 2024.535156,310.445709 2024.833496,311.000061 
	C2025.223755,311.765869 2025.614014,312.531677 2025.971680,313.817200 
	C2026.237061,314.891296 2026.535278,315.445679 2026.833252,316.000092 
	C2027.223633,316.765930 2027.613892,317.531738 2027.939697,318.893585 
	C2028.527832,320.993103 2029.180664,322.496582 2029.833374,324.000061 
	C2030.223633,324.765900 2030.613892,325.531738 2030.971558,326.817230 
	C2031.237061,327.891327 2031.535156,328.445709 2031.833374,329.000092 
	C2032.223633,329.765900 2032.613892,330.531708 2032.971436,331.817230 
	C2033.236938,332.891357 2033.535156,333.445740 2033.833374,334.000092 
	C2034.223755,334.765869 2034.614014,335.531677 2034.939697,336.893555 
	C2035.527954,338.993103 2036.180664,340.496582 2036.833496,342.000031 
	C2037.223755,342.765839 2037.614014,343.531647 2037.971680,344.817200 
	C2038.237061,345.891327 2038.535156,346.445709 2038.833374,347.000092 
	C2039.223633,347.765900 2039.614014,348.531708 2039.971436,349.817230 
	C2040.236938,350.891327 2040.535156,351.445740 2040.833374,352.000092 
	C2041.223755,352.765869 2041.614014,353.531677 2041.939697,354.893555 
	C2042.527954,356.993073 2043.180664,358.496552 2043.833374,360.000061 
	C2044.223633,360.765869 2044.614014,361.531677 2044.971558,362.817200 
	C2045.237061,363.891296 2045.535156,364.445709 2045.833252,365.000122 
	C2046.223633,365.765961 2046.613892,366.531769 2046.939697,367.893616 
	C2047.527832,369.992859 2048.180664,371.496063 2048.833496,372.999237 
	C2049.223633,373.765320 2049.614014,374.531372 2049.971680,375.817200 
	C2050.237061,376.891113 2050.535156,377.445221 2050.833496,377.999329 
	C2051.223877,378.765320 2051.614014,379.531311 2051.971680,380.817169 
	C2052.237061,381.891113 2052.535156,382.445221 2052.833496,382.999329 
	C2053.223877,383.765289 2053.614014,384.531311 2053.939941,385.893433 
	C2054.528076,387.992767 2055.180908,389.496002 2055.833496,390.999237 
	C2056.223633,391.765320 2056.613770,392.531403 2056.971680,393.817230 
	C2057.237061,394.891113 2057.535156,395.445221 2057.833496,395.999298 
	C2058.223877,396.765289 2058.614014,397.531311 2058.971680,398.817139 
	C2059.237061,399.891083 2059.535400,400.445190 2059.833496,400.999329 
	C2060.223633,401.765350 2060.614014,402.531342 2060.939941,403.893494 
	C2061.528076,405.992798 2062.180664,407.496033 2062.833496,408.999237 
	C2063.223633,409.765289 2063.614014,410.531342 2063.971680,411.817200 
	C2064.237061,412.891083 2064.535400,413.445190 2064.833496,413.999329 
	C2065.223633,414.765320 2065.614014,415.531342 2065.939941,416.893494 
	C2066.528076,418.992798 2067.180664,420.496002 2067.833496,421.999207 
	C2068.223877,422.765259 2068.614014,423.531311 2068.971680,424.817200 
	C2069.237061,425.891113 2069.535400,426.445221 2069.833496,426.999329 
	C2070.223877,427.765320 2070.614014,428.531342 2070.971680,429.817169 
	C2071.237061,430.891113 2071.535156,431.445221 2071.833496,431.999329 
z"/>
<path fill="#E50914" opacity="1.000000" stroke="none" 
	d="
M667.833374,456.000275 
	C667.833374,484.459137 667.833374,512.917969 667.833374,541.633301 
	C662.922852,542.101440 658.218445,542.704163 653.494995,542.973022 
	C634.686462,544.043701 615.866211,544.913635 597.061707,546.047363 
	C583.239075,546.880737 569.432129,547.979492 555.622131,549.013306 
	C538.203308,550.317139 520.786316,551.645447 503.372986,553.020081 
	C491.390259,553.966125 479.406830,554.919373 467.438934,556.032776 
	C454.348175,557.250549 441.276367,558.670532 428.192139,559.960510 
	C426.713867,560.106201 425.208801,559.980225 423.358704,559.980225 
	C423.358704,387.410645 423.358704,215.041046 423.358704,42.335606 
	C504.725311,42.335606 586.092224,42.335606 667.729736,42.335606 
	C667.729736,71.744553 667.729736,101.000992 667.729736,130.844788 
	C616.009949,130.844788 564.302795,130.844788 512.299377,130.844788 
	C512.299377,170.018021 512.299377,208.606644 512.299377,247.500000 
	C551.222046,247.500000 590.218201,247.500000 629.607178,247.500000 
	C629.607178,275.948883 629.607178,304.656891 629.607178,333.694916 
	C590.610718,334.201843 551.610474,334.708801 512.307495,335.219696 
	C512.307495,378.461884 512.307495,421.508942 512.307495,464.859131 
	C518.435425,464.558289 524.336731,464.415375 530.210815,463.938354 
	C535.935242,463.473541 541.616943,462.446960 547.343933,462.056213 
	C559.374878,461.235229 571.426025,460.715973 583.463745,459.987213 
	C599.279114,459.029755 615.088318,457.969788 630.902527,456.991913 
	C642.274536,456.288727 653.650452,455.647675 665.704956,455.103455 
	C666.867981,455.485413 667.350708,455.742859 667.833374,456.000275 
z"/>
<path fill="#E50914" opacity="1.000000" stroke="none" 
	d="
M1051.000000,366.000000 
	C1051.000000,257.884216 1051.000000,150.268417 1051.000000,42.326538 
	C1133.077026,42.326538 1214.777466,42.326538 1296.739136,42.326538 
	C1296.739136,71.763435 1296.739136,101.019882 1296.739136,130.863693 
	C1244.324341,130.863693 1191.950439,130.863693 1139.289917,130.863693 
	C1139.289917,168.370804 1139.289917,205.293045 1139.289917,242.805267 
	C1178.614990,242.805267 1217.991577,242.805267 1257.682129,242.805267 
	C1257.682129,271.981689 1257.682129,300.572144 1257.682129,329.752747 
	C1218.437988,329.752747 1179.061401,329.752747 1139.104370,329.752747 
	C1139.104370,396.709320 1139.104370,463.080750 1139.104370,529.724670 
	C1109.598999,529.724670 1080.675781,529.724670 1051.000000,529.724670 
	C1051.000000,475.316681 1051.000000,420.908325 1051.000000,366.000000 
z"/>
<path fill="#E50914" opacity="1.000000" stroke="none" 
	d="
M972.000000,131.000000 
	C948.872192,131.000000 926.244385,131.000000 903.051758,131.000000 
	C903.051758,264.771790 903.051758,398.134277 903.051758,531.498718 
	C897.768372,532.036865 893.052429,532.827209 888.319763,532.944763 
	C869.554565,533.410950 850.782288,533.590393 832.016846,534.048462 
	C826.602539,534.180664 821.202332,534.890137 815.183472,535.385376 
	C815.183472,400.370758 815.183472,266.008270 815.183472,131.231293 
	C784.364563,131.231293 754.106506,131.231293 723.425049,131.231293 
	C723.425049,101.446609 723.425049,72.072556 723.425049,42.348278 
	C813.698608,42.348278 904.064270,42.348278 994.715210,42.348278 
	C994.715210,71.714989 994.715210,100.971527 994.715210,131.000000 
	C987.343323,131.000000 979.921631,131.000000 972.000000,131.000000 
z"/>
<path fill="#E50914" opacity="1.000000" stroke="none" 
	d="
M1352.000000,61.000694 
	C1352.000000,54.535744 1352.000000,48.570641 1352.000000,42.306446 
	C1381.670898,42.306446 1410.927490,42.306446 1440.754150,42.306446 
	C1440.754150,177.905731 1440.754150,313.598602 1440.754150,449.657898 
	C1445.469238,450.140228 1449.662354,450.771729 1453.875610,450.964447 
	C1470.412476,451.720764 1486.959106,452.263855 1503.495117,453.033875 
	C1514.876465,453.563873 1526.247681,454.319092 1537.621460,455.006073 
	C1553.934937,455.991394 1570.246338,457.014526 1586.559814,458.000641 
	C1589.382568,458.171295 1591.071533,459.008423 1591.057251,462.419708 
	C1590.943359,489.580292 1590.984131,516.741455 1590.964233,543.902466 
	C1590.963867,544.379517 1590.800537,544.856384 1590.777100,544.984680 
	C1582.782227,544.984680 1574.911377,545.240051 1567.065552,544.907898 
	C1560.174072,544.616150 1553.322388,543.469910 1546.431763,543.055908 
	C1537.506958,542.519653 1528.557251,542.413635 1519.624878,541.983887 
	C1499.810303,541.030640 1479.999878,539.991394 1460.187744,538.986450 
	C1447.146240,538.324951 1434.108765,537.561890 1421.062134,537.024048 
	C1402.525635,536.259827 1383.979736,535.719666 1365.443604,534.946655 
	C1361.187988,534.769104 1356.955566,534.033447 1352.000000,533.474243 
	C1352.000000,376.291931 1352.000000,218.896225 1352.000000,61.000694 
z"/>
<path fill="#E50914" opacity="1.000000" stroke="none" 
	d="
M1663.107178,43.326714 
	C1664.247803,42.571835 1665.316040,42.040714 1666.385010,42.039215 
	C1693.874634,42.000652 1721.364380,42.016117 1748.854004,42.034351 
	C1749.334595,42.034668 1749.815063,42.183952 1750.643433,42.321468 
	C1750.643433,214.325180 1750.643433,386.333954 1750.643433,558.414795 
	C1739.292358,557.609436 1727.892700,556.857849 1716.503052,555.978943 
	C1699.919434,554.699219 1683.347290,553.267212 1666.759033,552.055115 
	C1663.972534,551.851624 1662.787476,550.832703 1662.997681,548.108948 
	C1663.036133,547.612183 1663.000488,547.109741 1663.000488,546.609924 
	C1663.011963,379.005707 1663.023438,211.401474 1663.107178,43.326714 
z"/>
<path fill="#E50914" opacity="1.000000" stroke="none" 
	d="
M1978.631714,186.921082 
	C1978.200195,187.273148 1977.442505,187.661301 1976.684692,188.049438 
	C1976.419556,187.186874 1976.154541,186.324295 1975.998047,185.206009 
	C1976.839478,185.619247 1977.572510,186.288208 1978.631714,186.921082 
z"/>
<path fill="#E50914" opacity="1.000000" stroke="none" 
	d="
M1960.890381,145.647705 
	C1960.180664,144.496429 1959.527954,142.993027 1958.990967,141.219986 
	C1959.720093,142.398758 1960.333618,143.847168 1960.890381,145.647705 
z"/>
<path fill="#E50914" opacity="1.000000" stroke="none" 
	d="
M2043.890259,359.647888 
	C2043.180664,358.496552 2042.527954,356.993073 2041.990723,355.219971 
	C2042.719971,356.398834 2043.333618,357.847290 2043.890259,359.647888 
z"/>
<path fill="#E50914" opacity="1.000000" stroke="none" 
	d="
M2081.890137,457.647156 
	C2081.180664,456.496002 2080.528076,454.992798 2079.990723,453.220001 
	C2080.719971,454.398651 2081.333496,455.846893 2081.890137,457.647156 
z"/>
<path fill="#E50914" opacity="1.000000" stroke="none" 
	d="
M1967.890259,163.647720 
	C1967.180664,162.496445 1966.527954,160.993042 1965.990845,159.220001 
	C1966.719971,160.398773 1967.333618,161.847183 1967.890259,163.647720 
z"/>
<path fill="#E50914" opacity="1.000000" stroke="none" 
	d="
M2105.890137,519.647095 
	C2105.180664,518.495972 2104.528076,516.992798 2103.990723,515.219971 
	C2104.719971,516.398560 2105.333496,517.846802 2105.890137,519.647095 
z"/>
<path fill="#E50914" opacity="1.000000" stroke="none" 
	d="
M2055.890137,390.647156 
	C2055.180908,389.496002 2054.528076,387.992767 2053.990723,386.219971 
	C2054.719971,387.398621 2055.333496,388.846863 2055.890137,390.647156 
z"/>
<path fill="#E50914" opacity="1.000000" stroke="none" 
	d="
M1974.890259,181.647736 
	C1974.180664,180.496445 1973.527954,178.993042 1972.990845,177.220016 
	C1973.719971,178.398788 1974.333496,179.847214 1974.890259,181.647736 
z"/>
<path fill="#E50914" opacity="1.000000" stroke="none" 
	d="
M2100.890137,506.647156 
	C2100.180664,505.496002 2099.528076,503.992798 2098.990723,502.220001 
	C2099.719971,503.398621 2100.333496,504.846863 2100.890137,506.647156 
z"/>
<path fill="#E50914" opacity="1.000000" stroke="none" 
	d="
M2029.890259,323.647888 
	C2029.180664,322.496582 2028.527832,320.993103 2027.990723,319.220001 
	C2028.719971,320.398834 2029.333618,321.847290 2029.890259,323.647888 
z"/>
<path fill="#E50914" opacity="1.000000" stroke="none" 
	d="
M2093.890137,488.647156 
	C2093.180664,487.496033 2092.528076,485.992828 2091.990723,484.220001 
	C2092.719971,485.398621 2093.333496,486.846863 2093.890137,488.647156 
z"/>
<path fill="#E50914" opacity="1.000000" stroke="none" 
	d="
M2036.890259,341.647888 
	C2036.180664,340.496582 2035.527954,338.993103 2034.990723,337.220001 
	C2035.719971,338.398834 2036.333618,339.847290 2036.890259,341.647888 
z"/>
<path fill="#E50914" opacity="1.000000" stroke="none" 
	d="
M2048.890137,372.647156 
	C2048.180664,371.496063 2047.527832,369.992859 2046.990723,368.220032 
	C2047.719971,369.398621 2048.333496,370.846863 2048.890137,372.647156 
z"/>
<path fill="#E50914" opacity="1.000000" stroke="none" 
	d="
M2086.890137,470.647156 
	C2086.180664,469.496063 2085.527832,467.992828 2084.990723,466.219971 
	C2085.719971,467.398590 2086.333496,468.846802 2086.890137,470.647156 
z"/>
<path fill="#E50914" opacity="1.000000" stroke="none" 
	d="
M1955.890381,132.647705 
	C1955.180664,131.496384 1954.527832,129.992966 1953.990723,128.219955 
	C1954.719971,129.398773 1955.333618,130.847183 1955.890381,132.647705 
z"/>
<path fill="#E50914" opacity="1.000000" stroke="none" 
	d="
M2131.890137,586.647095 
	C2131.180664,585.495911 2130.528076,583.992798 2129.990723,582.219971 
	C2130.719971,583.398560 2131.333496,584.846802 2131.890137,586.647095 
z"/>
<path fill="#E50914" opacity="1.000000" stroke="none" 
	d="
M1929.890137,65.647720 
	C1929.180664,64.496468 1928.527954,62.993069 1927.990845,61.220009 
	C1928.719971,62.398754 1929.333496,63.847160 1929.890137,65.647720 
z"/>
<path fill="#E50914" opacity="1.000000" stroke="none" 
	d="
M2074.890137,439.647156 
	C2074.180908,438.496002 2073.528076,436.992767 2072.990723,435.219971 
	C2073.719971,436.398590 2074.333496,437.846832 2074.890137,439.647156 
z"/>
<path fill="#E50914" opacity="1.000000" stroke="none" 
	d="
M1936.890137,83.647720 
	C1936.180664,82.496414 1935.527954,80.992996 1934.990723,79.219986 
	C1935.719849,80.398788 1936.333374,81.847198 1936.890137,83.647720 
z"/>
<path fill="#E50914" opacity="1.000000" stroke="none" 
	d="
M2124.890137,568.647095 
	C2124.180664,567.495911 2123.528076,565.992798 2122.990723,564.219971 
	C2123.719971,565.398621 2124.333496,566.846802 2124.890137,568.647095 
z"/>
<path fill="#E50914" opacity="1.000000" stroke="none" 
	d="
M1941.890137,96.647713 
	C1941.180542,95.496437 1940.527832,93.993019 1939.990723,92.219978 
	C1940.719971,93.398766 1941.333496,94.847168 1941.890137,96.647713 
z"/>
<path fill="#E50914" opacity="1.000000" stroke="none" 
	d="
M2067.890137,421.647156 
	C2067.180664,420.496002 2066.528076,418.992798 2065.990723,417.219971 
	C2066.719971,418.398590 2067.333496,419.846832 2067.890137,421.647156 
z"/>
<path fill="#E50914" opacity="1.000000" stroke="none" 
	d="
M2119.890137,555.647095 
	C2119.180664,554.495972 2118.527832,552.992798 2117.990723,551.220032 
	C2118.719971,552.398560 2119.333496,553.846802 2119.890137,555.647095 
z"/>
<path fill="#E50914" opacity="1.000000" stroke="none" 
	d="
M1948.890137,114.647743 
	C1948.180542,113.496460 1947.527832,111.993042 1946.990723,110.220009 
	C1947.719849,111.398804 1948.333374,112.847206 1948.890137,114.647743 
z"/>
<path fill="#E50914" opacity="1.000000" stroke="none" 
	d="
M2062.890137,408.647156 
	C2062.180664,407.496033 2061.528076,405.992798 2060.990723,404.219971 
	C2061.719971,405.398590 2062.333496,406.846802 2062.890137,408.647156 
z"/>
<path fill="#E50914" opacity="1.000000" stroke="none" 
	d="
M2112.890137,537.647095 
	C2112.180908,536.495911 2111.528076,534.992737 2110.990723,533.219971 
	C2111.719971,534.398621 2112.333496,535.846802 2112.890137,537.647095 
z"/>
<path fill="#E50914" opacity="1.000000" stroke="none" 
	d="
M2078.893555,449.697998 
	C2078.535400,449.445160 2078.237061,448.891052 2078.022705,448.143677 
	C2078.388916,448.432495 2078.671387,448.914581 2078.893555,449.697998 
z"/>
<path fill="#E50914" opacity="1.000000" stroke="none" 
	d="
M2083.893555,462.697998 
	C2083.535400,462.445190 2083.237061,461.891083 2083.022705,461.143677 
	C2083.388916,461.432495 2083.671387,461.914581 2083.893555,462.697998 
z"/>
<path fill="#E50914" opacity="1.000000" stroke="none" 
	d="
M2076.893555,444.697998 
	C2076.535156,444.445221 2076.237061,443.891113 2076.022705,443.143677 
	C2076.388916,443.432465 2076.671387,443.914551 2076.893555,444.697998 
z"/>
<path fill="#E50914" opacity="1.000000" stroke="none" 
	d="
M667.890869,455.679962 
	C667.350708,455.742859 666.867981,455.485413 666.167969,455.060608 
	C666.616577,455.048706 667.282471,455.204193 667.890869,455.679962 
z"/>
<path fill="#E50914" opacity="1.000000" stroke="none" 
	d="
M2135.893555,596.698120 
	C2135.535400,596.445251 2135.237061,595.891113 2135.022705,595.143677 
	C2135.388916,595.432556 2135.671387,595.914673 2135.893555,596.698120 
z"/>
<path fill="#E50914" opacity="1.000000" stroke="none" 
	d="
M2088.893555,475.697998 
	C2088.535400,475.445190 2088.237061,474.891083 2088.022705,474.143677 
	C2088.388916,474.432495 2088.671387,474.914581 2088.893555,475.697998 
z"/>
<path fill="#E50914" opacity="1.000000" stroke="none" 
	d="
M2090.893555,480.697968 
	C2090.535400,480.445190 2090.237061,479.891083 2090.022705,479.143677 
	C2090.388916,479.432434 2090.671387,479.914551 2090.893555,480.697968 
z"/>
<path fill="#E50914" opacity="1.000000" stroke="none" 
	d="
M2095.893555,493.697998 
	C2095.535156,493.445221 2095.237061,492.891113 2095.022705,492.143707 
	C2095.388916,492.432495 2095.671387,492.914612 2095.893555,493.697998 
z"/>
<path fill="#E50914" opacity="1.000000" stroke="none" 
	d="
M2097.893555,498.697998 
	C2097.535156,498.445221 2097.237061,497.891113 2097.022705,497.143677 
	C2097.388916,497.432465 2097.671387,497.914551 2097.893555,498.697998 
z"/>
<path fill="#E50914" opacity="1.000000" stroke="none" 
	d="
M2102.893555,511.698364 
	C2102.535400,511.445496 2102.237061,510.891266 2102.022705,510.143677 
	C2102.388916,510.432556 2102.671387,510.914764 2102.893555,511.698364 
z"/>
<path fill="#E50914" opacity="1.000000" stroke="none" 
	d="
M2107.893555,524.698120 
	C2107.535400,524.445251 2107.237061,523.891113 2107.022705,523.143677 
	C2107.388916,523.432495 2107.671387,523.914673 2107.893555,524.698120 
z"/>
<path fill="#E50914" opacity="1.000000" stroke="none" 
	d="
M2109.893555,529.698120 
	C2109.535400,529.445251 2109.237061,528.891113 2109.022705,528.143677 
	C2109.388916,528.432495 2109.671387,528.914673 2109.893555,529.698120 
z"/>
<path fill="#E50914" opacity="1.000000" stroke="none" 
	d="
M2114.893555,542.698120 
	C2114.535400,542.445251 2114.237061,541.891113 2114.022705,541.143677 
	C2114.388916,541.432495 2114.671387,541.914673 2114.893555,542.698120 
z"/>
<path fill="#E50914" opacity="1.000000" stroke="none" 
	d="
M2116.893555,547.698059 
	C2116.535400,547.445251 2116.237061,546.891113 2116.022705,546.143677 
	C2116.388916,546.432495 2116.671387,546.914612 2116.893555,547.698059 
z"/>
<path fill="#E50914" opacity="1.000000" stroke="none" 
	d="
M2121.893555,560.698120 
	C2121.535400,560.445251 2121.237061,559.891113 2121.022705,559.143677 
	C2121.388916,559.432556 2121.671387,559.914673 2121.893555,560.698120 
z"/>
<path fill="#E50914" opacity="1.000000" stroke="none" 
	d="
M2126.893555,573.698120 
	C2126.535400,573.445251 2126.237061,572.891113 2126.022705,572.143677 
	C2126.388916,572.432556 2126.671387,572.914673 2126.893555,573.698120 
z"/>
<path fill="#E50914" opacity="1.000000" stroke="none" 
	d="
M2128.893555,578.698120 
	C2128.535156,578.445312 2128.237061,577.891174 2128.022705,577.143677 
	C2128.388916,577.432495 2128.671387,577.914612 2128.893555,578.698120 
z"/>
<path fill="#E50914" opacity="1.000000" stroke="none" 
	d="
M2133.893555,591.698120 
	C2133.535156,591.445312 2133.237061,590.891174 2133.022705,590.143677 
	C2133.388916,590.432495 2133.671387,590.914612 2133.893555,591.698120 
z"/>
<path fill="#E50914" opacity="1.000000" stroke="none" 
	d="
M1969.893555,168.698517 
	C1969.535278,168.445602 1969.237061,167.891281 1969.022705,167.143677 
	C1969.388794,167.432632 1969.671265,167.914871 1969.893555,168.698517 
z"/>
<path fill="#E50914" opacity="1.000000" stroke="none" 
	d="
M1922.893677,47.698433 
	C1922.535278,47.445526 1922.237183,46.891205 1922.022827,46.143593 
	C1922.388916,46.432545 1922.671387,46.914783 1922.893677,47.698433 
z"/>
<path fill="#E50914" opacity="1.000000" stroke="none" 
	d="
M1924.893555,52.698479 
	C1924.535278,52.445564 1924.237061,51.891243 1924.022705,51.143639 
	C1924.388916,51.432594 1924.671265,51.914833 1924.893555,52.698479 
z"/>
<path fill="#E50914" opacity="1.000000" stroke="none" 
	d="
M1926.893555,57.698490 
	C1926.535156,57.445599 1926.237061,56.891277 1926.022705,56.143650 
	C1926.388916,56.432583 1926.671265,56.914822 1926.893555,57.698490 
z"/>
<path fill="#E50914" opacity="1.000000" stroke="none" 
	d="
M1931.893555,70.698486 
	C1931.535156,70.445602 1931.237061,69.891281 1931.022705,69.143639 
	C1931.388916,69.432556 1931.671387,69.914795 1931.893555,70.698486 
z"/>
<path fill="#E50914" opacity="1.000000" stroke="none" 
	d="
M1933.893555,75.698471 
	C1933.535156,75.445587 1933.237061,74.891266 1933.022705,74.143623 
	C1933.388916,74.432541 1933.671387,74.914780 1933.893555,75.698471 
z"/>
<path fill="#E50914" opacity="1.000000" stroke="none" 
	d="
M1938.893555,88.698486 
	C1938.535156,88.445595 1938.237061,87.891273 1938.022705,87.143639 
	C1938.388916,87.432571 1938.671387,87.914810 1938.893555,88.698486 
z"/>
<path fill="#E50914" opacity="1.000000" stroke="none" 
	d="
M1943.893555,101.698502 
	C1943.535156,101.445602 1943.237061,100.891273 1943.022705,100.143661 
	C1943.388916,100.432602 1943.671265,100.914841 1943.893555,101.698502 
z"/>
<path fill="#E50914" opacity="1.000000" stroke="none" 
	d="
M1945.893555,106.698486 
	C1945.535278,106.445580 1945.237061,105.891258 1945.022705,105.143646 
	C1945.388916,105.432587 1945.671265,105.914825 1945.893555,106.698486 
z"/>
<path fill="#E50914" opacity="1.000000" stroke="none" 
	d="
M1950.893555,119.698471 
	C1950.535156,119.445587 1950.237061,118.891266 1950.022705,118.143631 
	C1950.388916,118.432556 1950.671387,118.914795 1950.893555,119.698471 
z"/>
<path fill="#E50914" opacity="1.000000" stroke="none" 
	d="
M1952.893555,124.698456 
	C1952.535278,124.445572 1952.237061,123.891251 1952.022705,123.143616 
	C1952.388916,123.432541 1952.671387,123.914780 1952.893555,124.698456 
z"/>
<path fill="#E50914" opacity="1.000000" stroke="none" 
	d="
M1957.893555,137.698517 
	C1957.535278,137.445587 1957.237183,136.891266 1957.022705,136.143646 
	C1957.388916,136.432617 1957.671265,136.914856 1957.893555,137.698517 
z"/>
<path fill="#E50914" opacity="1.000000" stroke="none" 
	d="
M1962.893555,150.698547 
	C1962.535156,150.445633 1962.237061,149.891312 1962.022705,149.143692 
	C1962.388794,149.432648 1962.671265,149.914886 1962.893555,150.698547 
z"/>
<path fill="#E50914" opacity="1.000000" stroke="none" 
	d="
M1964.893555,155.698486 
	C1964.535278,155.445557 1964.237183,154.891235 1964.022705,154.143631 
	C1964.388916,154.432602 1964.671387,154.914841 1964.893555,155.698486 
z"/>
<path fill="#E50914" opacity="1.000000" stroke="none" 
	d="
M2071.893555,431.697998 
	C2071.535156,431.445221 2071.237061,430.891113 2071.022705,430.143677 
	C2071.388916,430.432465 2071.671387,430.914581 2071.893555,431.697998 
z"/>
<path fill="#E50914" opacity="1.000000" stroke="none" 
	d="
M2050.893555,377.697998 
	C2050.535156,377.445221 2050.237061,376.891113 2050.022705,376.143677 
	C2050.388916,376.432465 2050.671387,376.914581 2050.893555,377.697998 
z"/>
<path fill="#E50914" opacity="1.000000" stroke="none" 
	d="
M1973.090820,428.383118 
	C1973.562744,428.309814 1974.169678,428.507141 1974.867432,428.909882 
	C1974.380859,428.961395 1973.803345,428.807556 1973.090820,428.383118 
z"/>
<path fill="#E50914" opacity="1.000000" stroke="none" 
	d="
M2069.893555,426.697998 
	C2069.535400,426.445221 2069.237061,425.891113 2069.022705,425.143707 
	C2069.388916,425.432495 2069.671387,425.914612 2069.893555,426.697998 
z"/>
<path fill="#E50914" opacity="1.000000" stroke="none" 
	d="
M2064.893555,413.697968 
	C2064.535400,413.445190 2064.237061,412.891083 2064.022705,412.143677 
	C2064.388916,412.432465 2064.671387,412.914551 2064.893555,413.697968 
z"/>
<path fill="#E50914" opacity="1.000000" stroke="none" 
	d="
M2059.893555,400.697998 
	C2059.535400,400.445190 2059.237061,399.891083 2059.022705,399.143677 
	C2059.388916,399.432526 2059.671387,399.914612 2059.893555,400.697998 
z"/>
<path fill="#E50914" opacity="1.000000" stroke="none" 
	d="
M2057.893555,395.697998 
	C2057.535156,395.445221 2057.237061,394.891113 2057.022705,394.143707 
	C2057.388916,394.432495 2057.671387,394.914581 2057.893555,395.697998 
z"/>
<path fill="#E50914" opacity="1.000000" stroke="none" 
	d="
M2052.893555,382.697998 
	C2052.535156,382.445221 2052.237061,381.891113 2052.022705,381.143677 
	C2052.388916,381.432434 2052.671387,381.914520 2052.893555,382.697998 
z"/>
<path fill="#E50914" opacity="1.000000" stroke="none" 
	d="
M1971.893555,173.698517 
	C1971.535156,173.445633 1971.237061,172.891312 1971.022705,172.143661 
	C1971.388916,172.432571 1971.671387,172.914825 1971.893555,173.698517 
z"/>
<path fill="#E50914" opacity="1.000000" stroke="none" 
	d="
M2045.893555,364.698639 
	C2045.535156,364.445709 2045.237061,363.891296 2045.022705,363.143646 
	C2045.388916,363.432648 2045.671265,363.914917 2045.893555,364.698639 
z"/>
<path fill="#E50914" opacity="1.000000" stroke="none" 
	d="
M2040.893555,351.698669 
	C2040.535156,351.445740 2040.236938,350.891327 2040.022583,350.143677 
	C2040.388794,350.432678 2040.671265,350.914948 2040.893555,351.698669 
z"/>
<path fill="#E50914" opacity="1.000000" stroke="none" 
	d="
M2038.893555,346.698669 
	C2038.535156,346.445709 2038.237061,345.891327 2038.022705,345.143677 
	C2038.388794,345.432678 2038.671265,345.914948 2038.893555,346.698669 
z"/>
<path fill="#E50914" opacity="1.000000" stroke="none" 
	d="
M2033.893555,333.698669 
	C2033.535156,333.445740 2033.236938,332.891357 2033.022583,332.143677 
	C2033.388916,332.432648 2033.671265,332.914917 2033.893555,333.698669 
z"/>
<path fill="#E50914" opacity="1.000000" stroke="none" 
	d="
M2031.893555,328.698639 
	C2031.535156,328.445709 2031.237061,327.891327 2031.022705,327.143646 
	C2031.388916,327.432648 2031.671265,327.914917 2031.893555,328.698639 
z"/>
<path fill="#E50914" opacity="1.000000" stroke="none" 
	d="
M2026.893555,315.698639 
	C2026.535278,315.445679 2026.237061,314.891296 2026.022705,314.143646 
	C2026.388794,314.432678 2026.671265,314.914948 2026.893555,315.698639 
z"/>
<path fill="#E50914" opacity="1.000000" stroke="none" 
	d="
M2024.893555,310.698669 
	C2024.535156,310.445709 2024.237061,309.891327 2024.022705,309.143677 
	C2024.388794,309.432678 2024.671265,309.914948 2024.893555,310.698669 
z"/>
<path fill="#E50914" opacity="1.000000" stroke="none" 
	d="
M1816.236816,563.569275 
	C1816.483398,563.578430 1816.588501,563.828064 1816.842896,564.455566 
	C1816.693359,564.492126 1816.394409,564.150940 1816.236816,563.569275 
z"/>
<path fill="#E50914" opacity="1.000000" stroke="none" 
	d="
M2037.148682,589.260986 
	C2037.360840,589.180908 2037.545410,589.358276 2037.847290,589.689453 
	C2037.974365,589.833374 2037.479248,589.861328 2037.479248,589.861328 
	C2037.479248,589.861328 2037.130859,589.508362 2037.148682,589.260986 
z"/>
</svg>